<svg width="64" height="64" viewBox="0 0 64 64" fill="none" xmlns="http://www.w3.org/2000/svg">
  <defs>
    <linearGradient id="bg" x1="10" y1="8" x2="56" y2="58" gradientUnits="userSpaceOnUse">
      <stop stop-color="#182130" />
      <stop offset="1" stop-color="#0D121A" />
    </linearGradient>
    <linearGradient id="drum" x1="16" y1="34" x2="48" y2="50" gradientUnits="userSpaceOnUse">
      <stop stop-color="#FF7A1A" />
      <stop offset="1" stop-color="#FFCF72" />
    </linearGradient>
  </defs>
  <rect width="64" height="64" rx="18" fill="url(#bg)" />
  <rect x="7" y="7" width="50" height="50" rx="14" stroke="#FFFFFF" stroke-opacity="0.12" />
  <rect x="14" y="17" width="15" height="10" rx="4" fill="#F7F3EC" />
  <rect x="35" y="17" width="15" height="10" rx="4" fill="#F7F3EC" />
  <rect x="29" y="20" width="6" height="4" rx="2" fill="#F7F3EC" />
  <path d="M17 41C17 36.5817 20.5817 33 25 33H39C43.4183 33 47 36.5817 47 41V42C47 47.5228 42.5228 52 37 52H27C21.4772 52 17 47.5228 17 42V41Z" fill="url(#drum)" />
  <path d="M18.5 39.5H45.5" stroke="#FFF7EA" stroke-width="2.5" stroke-linecap="round" />
  <path d="M21 30L28 38" stroke="#52E4DC" stroke-width="3" stroke-linecap="round" />
  <path d="M43 30L36 38" stroke="#52E4DC" stroke-width="3" stroke-linecap="round" />
  <circle cx="25" cy="42" r="2.4" fill="#182130" />
  <circle cx="39" cy="42" r="2.4" fill="#182130" />
</svg>
